<svg width="192" height="70" viewBox="0 0 192 70" version="1.1" xmlns="http://www.w3.org/2000/svg" xmlns:xlink="http://www.w3.org/1999/xlink">
<title>LOGO</title>
<desc>Created using Figma</desc>
<g id="Canvas" transform="translate(297 170)">
<g id="LOGO">
<g id="Group">
<g id="Group">
<g id="Shape">
<use xlink:href="#path0_fill" transform="translate(-295.716 -139.763)" fill="#FFFFFF"/>
</g>
<g id="Shape">
<use xlink:href="#path1_fill" transform="translate(-289.917 -140.302)" fill="#FFFFFF"/>
</g>
<g id="Shape">
<use xlink:href="#path2_fill" transform="translate(-271.195 -140.302)" fill="#FFFFFF"/>
</g>
<g id="Shape">
<use xlink:href="#path3_fill" transform="translate(-259.391 -140.302)" fill="#FFFFFF"/>
</g>
<g id="Shape">
<use xlink:href="#path4_fill" transform="translate(-247.254 -143.864)" fill="#FFFFFF"/>
</g>
<g id="Shape">
<use xlink:href="#path5_fill" transform="translate(-235.408 -140.136)" fill="#FFFFFF"/>
</g>
<g id="Shape">
<use xlink:href="#path6_fill" transform="translate(-223.438 -143.822)" fill="#FFFFFF"/>
</g>
<g id="Shape">
<use xlink:href="#path7_fill" transform="translate(-279.769 -143.74)" fill="#FFFFFF"/>
</g>
<g id="Shape">
<use xlink:href="#path8_fill" transform="translate(-284.035 -118.763)" fill="#FFFFFF"/>
</g>
<g id="Shape">
<use xlink:href="#path9_fill" transform="translate(-272.231 -123.195)" fill="#FFFFFF"/>
</g>
<g id="Shape">
<use xlink:href="#path10_fill" transform="translate(-260.882 -118.763)" fill="#FFFFFF"/>
</g>
<g id="Shape">
<use xlink:href="#path11_fill" transform="translate(-248.953 -118.763)" fill="#FFFFFF"/>
</g>
<g id="Shape">
<use xlink:href="#path12_fill" transform="translate(-236.899 -118.763)" fill="#FFFFFF"/>
</g>
<g id="Shape">
<use xlink:href="#path13_fill" transform="translate(-224.846 -118.763)" fill="#FFFFFF"/>
</g>
<g id="Shape">
<use xlink:href="#path14_fill" transform="translate(-207.367 -118.183)" fill="#FFFFFF"/>
</g>
<g id="Shape">
<use xlink:href="#path15_fill" transform="translate(-195.065 -118.68)" fill="#FFFFFF"/>
</g>
<g id="Shape">
<use xlink:href="#path16_fill" transform="translate(-183.385 -118.722)" fill="#FFFFFF"/>
</g>
<g id="Shape">
<use xlink:href="#path17_fill" transform="translate(-175.763 -118.68)" fill="#FFFFFF"/>
</g>
<g id="Shape">
<use xlink:href="#path18_fill" transform="translate(-164.373 -118.68)" fill="#FFFFFF"/>
</g>
<g id="Shape">
<use xlink:href="#path19_fill" transform="translate(-153.852 -121)" fill="#FFFFFF"/>
</g>
<g id="Shape">
<use xlink:href="#path20_fill" transform="translate(-144.491 -118.183)" fill="#FFFFFF"/>
</g>
<g id="Shape">
<use xlink:href="#path16_fill" transform="translate(-137.905 -118.722)" fill="#FFFFFF"/>
</g>
<g id="Shape">
<use xlink:href="#path13_fill" transform="translate(-130.118 -118.763)" fill="#FFFFFF"/>
</g>
<g id="Shape">
<use xlink:href="#path21_fill" transform="translate(-113.426 -118.68)" fill="#FFFFFF"/>
</g>
</g>
<g id="Group">
<g id="Shape">
<use xlink:href="#path22_fill" transform="translate(-217.969 -157.581)" fill="#FFFFFF"/>
</g>
<g id="Shape">
<use xlink:href="#path23_fill" transform="translate(-200.864 -137.692)" fill="#FFFFFF"/>
</g>
</g>
<g id="Shape">
<use xlink:href="#path24_fill" transform="translate(-212.586 -151.817)" fill="#00A8E1"/>
</g>
</g>
<g id="Group">
<g id="Shape">
<use xlink:href="#path25_fill" transform="translate(-297 -150.574)" fill="#00A8E1"/>
</g>
<g id="Shape">
<use xlink:href="#path26_fill" transform="translate(-283.663 -162.834)" fill="#00A8E1"/>
</g>
<g id="Shape">
<use xlink:href="#path27_fill" transform="translate(-265.728 -170)" fill="#00A8E1"/>
</g>
<g id="Shape">
<use xlink:href="#path28_fill" transform="translate(-246.012 -169.047)" fill="#00A8E1"/>
</g>
<g id="Shape">
<use xlink:href="#path29_fill" transform="translate(-229.195 -160.308)" fill="#00A8E1"/>
</g>
<g id="Shape">
<use xlink:href="#path30_fill" transform="translate(-209.438 -129.036)" fill="#00A8E1"/>
</g>
</g>
</g>
</g>
<defs>
<path id="path0_fill" d="M 0 13.0059L 0 0.0414201L 2.69231 0L 2.73373 13.0059L 0 13.0059Z"/>
<path id="path1_fill" d="M 4.14201 13.7101C 2.94083 13.7101 1.86391 13.2959 1.20118 12.6331C 0.372781 11.8047 0 10.8521 0 9.60947L 2.69231 9.56805C 2.73373 10.1065 2.85799 10.5207 3.14793 10.8521C 3.39645 11.142 3.85207 11.2663 4.14201 11.2663C 4.59763 11.2663 4.88757 11.142 5.17752 10.8935C 5.42604 10.6864 5.5503 10.3136 5.5503 9.85799C 5.5503 9.44379 5.46746 9.15385 5.26035 8.90533C 5.05325 8.61539 4.72189 8.36686 4.22485 8.15976L 2.44379 7.33136C 1.53254 6.91716 0.869823 6.3787 0.497041 5.79882C 0.207101 5.3432 0.0828402 4.72189 0.0828402 3.97633C 0.0828402 2.81657 0.414201 1.94675 1.2426 1.11834C 1.94675 0.414201 2.98225 0 4.14201 0C 5.26035 0 6.29586 0.372781 6.95858 1.0355C 7.74556 1.78106 8.11834 2.73373 8.11834 4.01775L 5.46746 4.05917C 5.42604 3.47929 5.3432 3.10651 5.05325 2.85799C 4.80473 2.60947 4.51479 2.44379 4.14201 2.44379C 3.76923 2.44379 3.39645 2.56805 3.18935 2.81657C 2.94083 3.06509 2.81657 3.39645 2.81657 3.81065C 2.81657 4.14201 2.85799 4.34911 3.02367 4.59763C 3.18935 4.88757 3.56213 5.1361 3.97633 5.3432L 5.7574 6.08876C 6.71006 6.50296 7.28994 6.95858 7.70414 7.57988C 8.0355 7.99408 8.2426 8.78106 8.2426 9.65089C 8.2426 10.8107 7.8284 11.8462 7.04142 12.6331C 6.29586 13.3787 5.38461 13.7101 4.14201 13.7101Z"/>
<path id="path2_fill" fill-rule="evenodd" d="M 0.8284 12.5917C 1.53253 13.3787 2.27811 13.7101 3.35504 13.7101C 3.97632 13.7101 4.39053 13.5858 4.80475 13.3373C 5.05325 13.1716 5.30179 12.9231 5.59171 12.5089L 5.63315 13.5858L 8.20117 13.5444L 8.20117 4.14201C 8.20117 2.81657 7.8284 1.78107 7.04141 0.99408C 6.4201 0.33136 5.42603 0 4.18344 0C 3.14792 0 2.02957 0.4142 1.36685 1.07692C 0.579895 1.82248 0.207092 2.77515 0.248535 3.97633L 2.94083 3.93491C 2.94083 3.39645 3.06509 3.02367 3.35504 2.73373C 3.56213 2.48521 3.85208 2.36095 4.22485 2.36095C 5.01184 2.36095 5.46747 2.89941 5.46747 3.89349L 5.50888 5.71597L 4.30768 5.71597C 2.89941 5.71597 1.94675 6.00592 1.24261 6.62721C 0.455627 7.33136 0 8.36687 0 9.60947C 0 10.9349 0.289948 11.9704 0.8284 12.5917ZM 3.27219 8.07693C 3.64499 7.74557 4.01776 7.66273 4.63907 7.66273L 5.50888 7.62131L 5.50888 9.60947C 5.50888 10.645 4.92899 11.3491 4.10059 11.3491C 3.18936 11.3491 2.73373 10.7278 2.73373 9.52663C 2.73373 9.07101 2.94083 8.40829 3.27219 8.07693Z"/>
<path id="path3_fill" d="M 5.3432 13.5444L 5.30177 3.97633C 5.30177 3.02367 4.80473 2.44379 4.01775 2.44379C 3.23077 2.44379 2.73373 3.02367 2.73373 3.97633L 2.73373 13.5444L 0.0414201 13.5858L 0 0.248521L 2.60947 0.207101L 2.65089 1.15976C 2.81657 0.952663 3.14793 0.579882 3.47929 0.372781C 3.85207 0.12426 4.34911 0 4.84615 0C 5.92308 0 6.66864 0.331361 7.28994 1.0355C 7.8284 1.6568 8.0355 2.44379 8.0355 3.93491L 8.0355 13.5444L 5.3432 13.5444Z"/>
<path id="path4_fill" fill-rule="evenodd" d="M 3.47929 16.8994C 3.89349 17.1479 4.39053 17.2722 4.84616 17.2722C 5.88165 17.2722 6.62721 16.9822 7.20711 16.1538C 8.07692 15.0769 8.15976 13.213 8.15976 10.3136C 8.15976 7.45563 8.11835 5.63313 7.20711 4.51479C 6.5858 3.81065 5.88165 3.47929 4.84616 3.47929C 4.34911 3.47929 3.85207 3.60355 3.47929 3.85207C 3.23077 4.01775 2.94083 4.26627 2.73373 4.51479L 2.69231 0L 0 0.0414276L 0.0414276 17.0651L 2.65089 17.0237L 2.65089 16.1124C 2.81657 16.4024 3.23077 16.7751 3.47929 16.8994ZM 3.18935 6.29585C 3.39645 6.08876 3.72781 5.96449 4.05917 5.96449C 4.43195 5.96449 4.80473 6.1716 5.05325 6.46153C 5.38461 7.04141 5.42604 8.40828 5.42604 10.355C 5.42604 12.3432 5.38461 13.7101 5.05325 14.2899C 4.84615 14.6213 4.47337 14.8284 4.05917 14.8284C 3.72781 14.8284 3.39645 14.7041 3.18935 14.497C 2.89941 14.2071 2.77515 13.7929 2.77515 13.2544L 2.77515 7.53845C 2.77515 7 2.89941 6.5858 3.18935 6.29585Z"/>
<path id="path5_fill" d="M 3.18935 13.5444C 2.11243 13.5444 1.36686 13.213 0.745562 12.5089C 0.207101 11.8876 0 11.1006 0 9.60947L 0 0.0414201L 2.69231 0L 2.73373 9.56805C 2.73373 10.5207 3.23077 11.1006 4.01775 11.1006C 4.80473 11.1006 5.30177 10.5207 5.30177 9.56805L 5.30177 0.0414201L 7.99408 5.88615e-15L 8.0355 13.3373L 5.46746 13.3787L 5.42604 12.426C 5.21894 12.6746 4.88757 13.0473 4.55621 13.213C 4.14201 13.4201 3.64497 13.5444 3.18935 13.5444Z"/>
<path id="path6_fill" d="M 0 17.2308L 0 0L 2.81657 0L 2.81657 17.2308L 0 17.2308Z"/>
<path id="path7_fill" d="M 4.26627 17.0237C 3.68639 17.0237 3.23077 16.9822 2.85799 16.8994C 2.48521 16.8166 2.19527 16.6509 2.02959 16.4024C 1.82249 16.1538 1.69822 15.8639 1.61538 15.4497C 1.53254 15.0769 1.49112 14.5799 1.49112 14L 1.49112 5.92308L 0.0414201 5.9645L 0 3.93491L 1.53254 3.89349L 1.49112 0.0414201L 4.47337 0L 4.51479 3.93491L 6.21302 3.89349L 6.25444 5.92308L 4.51479 5.9645L 4.55621 13.7101C 4.55621 14.1657 4.63905 14.497 4.76331 14.6627C 4.88757 14.8284 5.17751 14.9527 5.59172 14.9527C 5.71598 14.9527 5.79882 14.9527 5.92308 14.9527C 6.04734 14.9527 6.13018 14.9527 6.25444 14.9112L 6.29586 16.9822C 5.92308 17.0237 5.63314 17.0237 5.3432 17.0237C 4.92899 17.0237 4.59763 17.0237 4.26627 17.0237Z"/>
<path id="path8_fill" fill-rule="evenodd" d="M 1.24261 12.6746C 2.02957 13.4615 2.858 13.7515 4.142 13.7515C 5.42603 13.7515 6.37869 13.3787 6.95859 12.6746C 7.62131 11.8876 7.99408 10.8935 8.03549 9.56805L 5.38461 9.60947C 5.38461 9.98225 5.26035 10.5207 5.05325 10.7692C 4.76331 11.142 4.47336 11.3077 4.05917 11.3077C 3.64496 11.3077 3.27219 11.1006 3.06509 10.7692C 2.73801 10.2786 2.69345 8.94046 2.6525 7.71088L 2.65088 7.66272L 8.15976 7.6213L 8.15976 7C 8.15976 4.72189 8.15976 2.31953 6.95859 1.07692C 6.25443 0.33136 5.38461 0 4.10059 0C 2.89941 0 1.98816 0.33136 1.24261 1.07692C 0.0828552 2.23669 0 4.47337 0 6.87574C 0 9.27811 0.0828552 11.5148 1.24261 12.6746ZM 3.10654 2.98225C 3.39645 2.60947 3.6864 2.44379 4.10062 2.44379C 4.5148 2.44379 4.84616 2.60947 5.05325 2.98225C 5.37979 3.39037 5.42477 4.56254 5.46564 5.62704L 5.46747 5.67455L 2.69232 5.71597C 2.69232 4.18343 2.81659 3.31361 3.10654 2.98225Z"/>
<path id="path9_fill" d="M 6.04734 17.9763L 3.81065 12.426L 2.69231 14.1657L 2.69231 17.9349L 0 17.9763L 0 0.0414201L 2.69231 0L 2.69231 10.2722L 6.00592 4.68047L 8.8639 4.63905L 5.5503 9.94083L 9.02959 17.9763L 6.04734 17.9763Z"/>
<path id="path10_fill" fill-rule="evenodd" d="M 0.952667 12.3432C 1.6568 13.2959 2.60947 13.7515 4.10059 13.7515C 5.59172 13.7515 6.5858 13.2959 7.24852 12.3432C 8.11835 11.142 8.20119 8.98817 8.20119 6.87574C 8.20119 4.76331 8.11835 2.60947 7.24852 1.40829C 6.5858 0.4142 5.59172 0 4.10059 0C 2.60947 0 1.6568 0.45562 0.952667 1.40829C 0.0828552 2.60947 0 4.76331 0 6.87574C 0 8.98817 0.0828552 11.142 0.952667 12.3432ZM 3.10651 2.98225C 3.31363 2.65089 3.6864 2.44379 4.10059 2.44379C 4.5148 2.44379 4.88757 2.65089 5.09468 2.98225C 5.42604 3.56213 5.46747 4.92899 5.46747 6.87574C 5.46747 8.86391 5.42604 10.2308 5.09468 10.8107C 4.88757 11.1006 4.5148 11.3077 4.10059 11.3077C 3.6864 11.3077 3.31363 11.142 3.10651 10.8107C 2.77515 10.1893 2.73373 8.86391 2.73373 6.87574C 2.73373 4.92899 2.77515 3.56213 3.10651 2.98225Z"/>
<path id="path11_fill" d="M 5.3432 13.5444L 5.30177 3.97633C 5.30177 3.02367 4.80473 2.48521 4.01775 2.48521C 3.23077 2.48521 2.73373 3.06509 2.73373 3.97633L 2.73373 13.503L 0.0414201 13.5444L 0 0.248521L 2.60947 0.207101L 2.65089 1.15976C 2.81657 0.952663 3.14793 0.579882 3.47929 0.372781C 3.85207 0.12426 4.34911 0 4.84615 0C 5.92308 0 6.66864 0.331361 7.28994 1.0355C 7.8284 1.6568 8.0355 2.44379 8.0355 3.93491L 8.0355 13.5444L 5.3432 13.5444Z"/>
<path id="path12_fill" fill-rule="evenodd" d="M 0.952667 12.3432C 1.6568 13.2959 2.60947 13.7515 4.10059 13.7515C 5.59172 13.7515 6.54437 13.2959 7.24852 12.3432C 8.11835 11.142 8.20119 8.98817 8.20119 6.87574C 8.20119 4.76331 8.11835 2.60947 7.24852 1.40829C 6.5858 0.4142 5.59172 0 4.10059 0C 2.60947 0 1.6568 0.45562 0.952667 1.40829C 0.08284 2.60947 0 4.76331 0 6.87574C 0 8.98817 0.08284 11.142 0.952667 12.3432ZM 3.10652 2.98225C 3.31361 2.65089 3.6864 2.44379 4.1006 2.44379C 4.5148 2.44379 4.88757 2.65089 5.09468 2.98225C 5.42604 3.56213 5.46747 4.92899 5.46747 6.87574C 5.46747 8.86391 5.42604 10.2308 5.09468 10.8107C 4.88757 11.1006 4.5148 11.3077 4.1006 11.3077C 3.6864 11.3077 3.31361 11.142 3.10652 10.8107C 2.77516 10.1893 2.73373 8.86391 2.73373 6.87574C 2.73373 4.92899 2.77516 3.56213 3.10652 2.98225Z"/>
<path id="path13_fill" d="M 10.6864 13.5444L 10.645 3.97633C 10.645 2.85799 9.98225 2.48521 9.31953 2.48521C 8.53254 2.48521 8.0355 3.06509 8.0355 3.97633L 8.0355 13.503L 5.3432 13.5444L 5.30177 3.97633C 5.30177 3.02367 4.80473 2.48521 4.01775 2.48521C 3.23077 2.48521 2.73373 3.06509 2.73373 3.97633L 2.73373 13.503L 0.0414201 13.5444L 0 0.248521L 2.60947 0.207101L 2.65089 1.15976C 2.81657 0.952663 3.14793 0.579882 3.47929 0.372781C 3.85207 0.12426 4.34911 5.88615e-15 4.84615 5.88615e-15C 5.88166 5.88615e-15 6.87574 0.497041 7.45562 1.36686C 7.78698 0.952663 8.20118 0.579882 8.61539 0.372781C 9.02959 0.12426 9.65089 0 10.0237 0C 11.2249 0 11.929 0.289941 12.5503 1.0355C 13.1302 1.69822 13.3373 2.48521 13.3373 3.93491L 13.3373 13.5444L 10.6864 13.5444Z"/>
<path id="path14_fill" d="M 0 12.9645L 0 0.0414201L 2.69231 0L 2.69231 12.9645L 0 12.9645Z"/>
<path id="path15_fill" fill-rule="evenodd" d="M 0.8284 12.5503C 1.53255 13.3373 2.27811 13.6686 3.35503 13.6686C 3.93491 13.6686 4.39053 13.5444 4.84616 13.2959C 5.09468 13.1302 5.3432 12.8817 5.63313 12.4675L 5.67456 13.5444L 8.20119 13.503L 8.20119 4.14201C 8.20119 2.81657 7.8284 1.78107 7.04143 0.99408C 6.37869 0.33136 5.42604 0 4.18343 0C 3.14793 0 2.02959 0.4142 1.36687 1.07692C 0.57988 1.82249 0.207108 2.77515 0.24852 3.97633L 2.94083 3.93491C 2.94083 3.39645 3.06509 3.02367 3.35503 2.73373C 3.60355 2.48521 3.85207 2.36095 4.22485 2.36095C 5.01184 2.36095 5.46745 2.85799 5.46745 3.85207L 5.50888 5.67455L 4.30769 5.67455C 2.89941 5.67455 1.94675 5.9645 1.2426 6.5858C 0.455627 7.28994 0 8.32545 0 9.56805C 0 10.8935 0.289948 11.929 0.8284 12.5503ZM 3.2722 7.99408C 3.64497 7.66272 4.01776 7.57988 4.63905 7.57988L 5.46747 7.57988L 5.46747 9.52663C 5.46747 10.5621 4.929 11.2663 4.1006 11.2663C 3.18936 11.2663 2.73373 10.645 2.73373 9.44379C 2.73373 8.98817 2.94084 8.32544 3.2722 7.99408Z"/>
<path id="path16_fill" d="M 0.0414201 13.503L 0 0.207101L 2.60947 0.16568L 2.65089 1.53254C 2.89941 1.15976 3.31361 0.786982 3.76923 0.538462C 4.34911 0.16568 5.09467 0 5.84024 0L 5.88166 2.60947L 4.92899 2.65089C 3.60355 2.65089 2.73373 3.56213 2.73373 4.92899L 2.73373 13.5444L 0.0414201 13.5444L 0.0414201 13.503Z"/>
<path id="path17_fill" fill-rule="evenodd" d="M 0.8284 12.5503C 1.53255 13.3373 2.27811 13.6686 3.35503 13.6686C 3.97633 13.6686 4.43195 13.5444 4.84616 13.2959C 5.09468 13.1302 5.3432 12.8817 5.63313 12.4675L 5.67456 13.5444L 8.20119 13.503L 8.20119 4.14201C 8.20119 2.81657 7.8284 1.78107 7.04141 0.99408C 6.37869 0.33136 5.42604 0 4.18343 0C 3.14793 0 2.02959 0.4142 1.36687 1.07692C 0.57988 1.82249 0.207108 2.77515 0.24852 3.97633L 2.94083 3.93491C 2.94083 3.39645 3.06509 3.02367 3.35503 2.73373C 3.60355 2.48521 3.85207 2.36095 4.22485 2.36095C 5.01184 2.36095 5.46745 2.85799 5.46745 3.85207L 5.50888 5.67455L 4.30769 5.67455C 2.89941 5.67455 1.94675 5.9645 1.2426 6.5858C 0.455627 7.28994 0 8.32545 0 9.56805C 0 10.8935 0.289948 11.929 0.8284 12.5503ZM 3.2722 7.99408C 3.64497 7.66272 4.01776 7.57988 4.63905 7.57988L 5.46747 7.57988L 5.46747 9.52663C 5.46747 10.5621 4.929 11.2663 4.1006 11.2663C 3.18936 11.2663 2.73373 10.645 2.73373 9.44379C 2.73373 8.98817 2.94084 8.32544 3.2722 7.99408Z"/>
<path id="path18_fill" fill-rule="evenodd" d="M 1.20119 12.5917C 1.86391 13.2544 2.94083 13.6686 4.14201 13.6686C 5.38461 13.6686 6.29585 13.3373 7 12.6746C 7.78699 11.8462 8.20119 10.8521 8.20119 9.69231C 8.20119 8.78107 8.03551 7.99408 7.66272 7.49704C 7.24852 6.91716 6.66864 6.46154 5.71597 6.04734L 3.93491 5.30177C 3.52071 5.09467 3.14793 4.84615 2.98225 4.55621C 2.81657 4.30769 2.77515 4.10059 2.77515 3.76923C 2.77515 3.35503 2.89941 3.02367 3.14793 2.77515C 3.35503 2.52663 3.72781 2.40237 4.10059 2.40237C 4.47337 2.40237 4.76332 2.56805 5.01184 2.81657C 5.30177 3.10651 5.38461 3.43787 5.42604 4.01775L 8.07692 3.97633C 8.07692 2.69231 7.70415 1.73965 6.91716 0.99408C 6.25444 0.37278 5.21893 0 4.10059 0C 2.94083 0 1.90532 0.4142 1.20119 1.11834C 0.372787 1.94675 0.0414276 2.81657 0.0414276 3.97633C 0.0414276 4.72189 0.16568 5.34319 0.455627 5.79881C 0.8284 6.42012 1.49112 6.91716 2.40237 7.33136L 4.18343 8.11835C 4.68048 8.32545 5.01184 8.57397 5.21893 8.86391C 5.42604 9.15385 5.50888 9.40237 5.50888 9.81657C 5.50888 10.2722 5.38461 10.645 5.13609 10.8521C 4.84616 11.1006 4.51479 11.2249 4.10059 11.2249C 3.81065 11.2249 3.35503 11.1006 3.10651 10.8107C 2.81657 10.4793 2.69231 10.0651 2.65089 9.52663L 0 9.56805C 0 10.8107 0.372787 11.7633 1.20119 12.5917ZM 3.23077 14.4556L 1.69823 18.3491L 1.69823 18.3905L 3.64497 18.3905L 4.97041 14.4556L 3.23077 14.4556Z"/>
<path id="path19_fill" d="M 5.92308 15.7811C 4.55621 15.7811 3.56213 15.6568 2.69231 14.9527C 1.78107 14.2485 1.36686 13.1716 1.36686 11.7219L 1.36686 5.67456L 0.0414201 5.71598L 0 3.64497L 1.36686 3.60355L 1.32544 0.0414201L 4.01775 0L 4.05917 3.60355L 5.88166 3.56213L 5.92308 5.63314L 4.05917 5.67456L 4.10059 11.5562C 4.10059 12.7574 4.68047 13.3373 5.9645 13.3373L 5.92308 15.7811Z"/>
<path id="path20_fill" d="M 0.0414201 12.9645L 0 0.0414201L 2.73373 0L 2.73373 12.9645L 0.0414201 12.9645Z"/>
<path id="path21_fill" fill-rule="evenodd" d="M 0.8284 12.5503C 1.53255 13.3373 2.27811 13.6686 3.35503 13.6686C 3.93491 13.6686 4.39053 13.5444 4.84615 13.2959C 5.09467 13.1302 5.34319 12.8817 5.63313 12.4675L 5.67455 13.5444L 8.20119 13.503L 8.20119 4.14201C 8.20119 2.81657 7.8284 1.78107 7.04142 0.99408C 6.3787 0.33136 5.42603 0 4.18343 0C 3.14793 0 2.02959 0.4142 1.36687 1.07692C 0.57988 1.82249 0.2071 2.77515 0.24852 3.97633L 2.94083 3.93491C 2.94083 3.39645 3.06509 3.02367 3.35503 2.73373C 3.60355 2.48521 3.85207 2.36095 4.22485 2.36095C 5.01183 2.36095 5.46745 2.85799 5.46745 3.85207L 5.50887 5.67455L 4.30769 5.67455C 2.89941 5.67455 1.94675 5.9645 1.24261 6.5858C 0.45562 7.28994 0 8.32545 0 9.56805C 0 10.8935 0.28994 11.929 0.8284 12.5503ZM 3.27219 7.99408C 3.64497 7.66272 4.01775 7.57988 4.63905 7.57988L 5.46745 7.57988L 5.46745 9.52663C 5.46745 10.5621 4.92899 11.2663 4.10059 11.2663C 3.18935 11.2663 2.73373 10.645 2.73373 9.44379C 2.73373 8.98817 2.94083 8.32544 3.27219 7.99408Z"/>
<path id="path22_fill" fill-rule="evenodd" d="M 2.48421 20.0959C 5.17651 23.6995 9.64989 25.6048 14.1233 25.0663C 16.2771 24.7764 18.3481 23.948 20.0878 22.664C 25.6381 18.522 26.7978 10.6107 22.6558 5.06042C 19.9635 1.45686 15.4901 -0.448456 11.0168 0.0900116C 8.8629 0.338531 6.7919 1.16693 5.05226 2.49237C -0.498047 6.63438 -1.65781 14.5456 2.48421 20.0959ZM 6.75047 4.72905C 8.11734 3.73497 9.73273 3.07225 11.3895 2.86516C 14.8688 2.45094 18.3067 3.94208 20.4191 6.71722C 23.6499 11.0249 22.7386 17.1551 18.431 20.3859C 17.0641 21.3799 15.4487 22.0427 13.7919 22.2498C 10.3126 22.664 6.87474 21.2143 4.76231 18.3977C 1.53154 14.09 2.44278 7.95982 6.75047 4.72905Z"/>
<path id="path23_fill" d="M 0 3.14793L 6.33728 11.6391C 7.2071 12.7988 8.8639 13.0473 10.0237 12.1775C 11.1834 11.3077 11.432 9.65089 10.5621 8.49112L 4.22485 0L 0 3.14793Z"/>
<path id="path24_fill" d="M 12.5917 11.6391L 7.78698 9.65089L 4.39053 13.6272L 4.80473 8.40828L 0 6.3787L 5.09467 5.17752L 5.50888 0L 8.20118 4.43195L 13.2544 3.23077L 9.85799 7.16568L 12.5917 11.6391Z"/>
<path id="path25_fill" d="M 4.97041 0L 4.97041 3.23077L 8.0355 4.22485L 4.97041 5.17752L 4.97041 8.40828L 3.06509 5.79882L 0 6.7929L 1.90533 4.18343L 0 1.57396L 3.06509 2.56805L 4.97041 0Z"/>
<path id="path26_fill" d="M 7.16568 0.414201L 5.92308 3.39645L 8.36686 5.50888L 5.17752 5.26035L 3.93491 8.2426L 3.18935 5.09467L 0 4.84615L 2.73373 3.18935L 1.98817 0L 4.43195 2.07101L 7.16568 0.414201Z"/>
<path id="path27_fill" d="M 8.28402 2.36095L 6.00592 4.63905L 7.45562 7.53846L 4.59763 6.04734L 2.31953 8.32544L 2.85799 5.13609L 0 3.64497L 3.14793 3.14793L 3.68639 0L 5.13609 2.85799L 8.28402 2.36095Z"/>
<path id="path28_fill" d="M 8.15976 3.89349L 5.17752 5.13609L 5.42604 8.36686L 3.35503 5.92308L 0.372781 7.16568L 2.07101 4.43195L 0 1.98817L 3.10651 2.73373L 4.80473 0L 5.05325 3.18935L 8.15976 3.89349Z"/>
<path id="path29_fill" d="M 8.4497 4.92899L 5.21894 4.92899L 4.22485 7.99408L 3.23077 4.92899L 0 4.92899L 2.60947 3.06509L 1.61538 0L 4.18343 1.90533L 6.7929 0.0414201L 5.79882 3.10651L 8.4497 4.92899Z"/>
<path id="path30_fill" d="M 5.9645 8.28402L 3.68639 6.00592L 0.786982 7.45562L 2.27811 4.59763L 0 2.31953L 3.18935 2.85799L 4.68047 0L 5.17752 3.14793L 8.32544 3.68639L 5.46746 5.13609L 5.9645 8.28402Z"/>
</defs>
</svg>
